Coordinates
version=1
nRows=24
nColumns=24
inDegrees=yes

Units are S.I. units (second, meters, Newtons, ...)
Angles are in degrees.

endheader
time	pelvis_tilt	pelvis_list	pelvis_rotation	pelvis_tx	pelvis_ty	pelvis_tz	hip_flexion_r	hip_adduction_r	hip_rotation_r	knee_angle_r	ankle_angle_r	subtalar_angle_r	mtp_angle_r	hip_flexion_l	hip_adduction_l	hip_rotation_l	knee_angle_l	ankle_angle_l	subtalar_angle_l	mtp_angle_l	lumbar_extension	lumbar_bending	lumbar_rotation
      6.36000000	     -2.17151178	      8.53914826	     -8.02440681	      1.79296637	      0.66460152	     -0.20487956	     11.22071215	     -3.44046457	      8.76173152	    -66.72039240	    -16.09942623	    -23.89017051	      0.00000000	     18.35361267	      7.32284856	     -8.47641683	    -17.05715676	      6.53391055	    -13.32209693	      0.00000000	     -8.77901476	    -19.41178249	      3.96755772
      6.37000000	     -2.23989607	      8.15878110	     -7.74062490	      1.80131744	      0.66619859	     -0.20604170	     13.76258500	     -2.62871819	      8.65181588	    -68.62585541	    -13.04249511	    -22.99351755	      0.00000000	     17.40293973	      7.28506099	     -7.86487296	    -16.75989423	      7.21745340	    -13.15321701	      0.00000000	     -9.60163283	    -18.78580668	      3.34340810
      6.38000000	     -2.31777421	      7.70276595	     -7.39326123	      1.80968576	      0.66774901	     -0.20724956	     16.19337425	     -1.79594999	      8.43144746	    -70.01780479	     -9.76289749	    -21.29264738	      0.00000000	     16.43969035	      7.18762992	     -7.11111299	    -16.44123523	      7.85645401	    -13.12692955	      0.00000000	    -10.38245568	    -18.06565278	      2.75165199
      6.39000000	     -2.41322654	      7.19221899	     -6.97421266	      1.81807509	      0.66920881	     -0.20849699	     18.51353198	     -0.98586275	      8.08352064	    -70.90544893	     -6.62925243	    -19.15013128	      0.00000000	     15.47782651	      7.03510775	     -6.28475445	    -16.10398684	      8.48120382	    -13.13335787	      0.00000000	    -11.11411279	    -17.27860409	      2.18175946
      6.40000000	     -2.52867289	      6.67201363	     -6.48501234	      1.82648345	      0.67053748	     -0.20975898	     20.72419668	     -0.25999491	      7.60700086	    -71.30308983	     -3.84519816	    -16.94345143	      0.00000000	     14.53017388	      6.85381389	     -5.47204676	    -15.75064934	      9.10146764	    -13.06088502	      0.00000000	    -11.79717706	    -16.48631203	      1.62137467
      6.41000000	     -2.66145073	      6.15694731	     -5.90472069	      1.83493354	      0.67170795	     -0.21104324	     22.80734669	      0.35001511	      6.98738684	    -71.21815804	     -1.52570264	    -15.01460541	      0.00000000	     13.60052938	      6.65181302	     -4.71065497	    -15.39197622	      9.73850048	    -12.82625911	      0.00000000	    -12.42806257	    -15.70177519	      1.04049208
      6.42000000	     -2.80397669	      5.68879878	     -5.28244170	      1.84343583	      0.67269214	     -0.21231618	     24.75204240	      0.80980918	      6.28639142	    -70.66132979	      0.38581559	    -13.56627703	      0.00000000	     12.69532937	      6.45987143	     -4.05180632	    -15.04934907	     10.47907980	    -12.44216264	      0.00000000	    -13.01268718	    -14.97834151	      0.45980921
      6.43000000	     -2.95105966	      5.24604241	     -4.59484562	      1.85202102	      0.67350923	     -0.21358997	     26.52344623	      1.13269472	      5.48047834	    -69.61661447	      1.89292001	    -12.76012073	      0.00000000	     11.80488293	      6.25999683	     -3.47249978	    -14.72427575	     11.28665571	    -11.85344497	      0.00000000	    -13.55629439	    -14.28773237	     -0.16182457
      6.44000000	     -3.09111962	      4.83195060	     -3.86489099	      1.86071840	      0.67415934	     -0.21485481	     28.09544976	      1.32248077	      4.59722304	    -68.08900086	      3.04043078	    -12.65469318	      0.00000000	     10.92536580	      6.05116254	     -2.99578479	    -14.43930528	     12.20071421	    -11.04769234	      0.00000000	    -14.05502953	    -13.63589458	     -0.80486121
      6.45000000	     -3.30516817	      4.48297069	     -3.08510106	      1.86952071	      0.67456165	     -0.21616773	     29.56260581	      1.34280831	      3.65351915	    -66.11441518	      3.81002429	    -13.21478424	      0.00000000	     10.09596467	      5.91289992	     -2.31885899	    -14.09122836	     12.90528762	    -10.60288732	      0.00000000	    -14.40816606	    -13.04423737	     -1.47011592
      6.46000000	     -3.37716966	      4.07893970	     -2.33530913	      1.87849935	      0.67497038	     -0.21741812	     30.62439709	      1.36487860	      2.71547877	    -63.60601351	      4.18407371	    -14.36239330	      0.00000000	      9.14326729	      5.65889613	     -1.89913047	    -13.82626897	     13.84770677	     -9.62372755	      0.00000000	    -14.84124489	    -12.39601744	     -2.08440481
      6.47000000	     -3.56880735	      3.78804692	     -1.56423000	      1.88758100	      0.67505597	     -0.21871632	     31.64220436	      1.19062466	      1.76220170	    -60.72505320	      4.41214224	    -15.66405916	      0.00000000	      8.30197458	      5.52967410	     -1.27659206	    -13.52146019	     14.63042307	     -9.05012519	      0.00000000	    -15.06170117	    -11.88598171	     -2.68732933
      6.48000000	     -3.80385003	      3.60598013	     -0.76520697	      1.89678825	      0.67488884	     -0.22009863	     32.52010334	      0.81391965	      0.78883484	    -57.48667506	      4.66526337	    -16.68906989	      0.00000000	      7.49506322	      5.52260824	     -0.48808413	    -13.20327157	     15.38532045	     -8.74485733	      0.00000000	    -15.16121533	    -11.48015555	     -3.32839838
      6.49000000	     -3.85598685	      3.37223794	     -0.07091192	      1.90620918	      0.67476154	     -0.22134304	     32.91612499	      0.55573935	     -0.01942680	    -53.70051302	      4.09953560	    -18.34999773	      0.00000000	      6.45083247	      5.41939692	      0.19885362	    -12.82466196	     16.01304878	     -8.41630265	      0.00000000	    -15.38050498	    -11.04461204	     -3.76305690
      6.50000000	     -3.98123241	      3.27419996	      0.65217455	      1.91577662	      0.67431821	     -0.22264817	     33.20349336	      0.10073874	     -0.82495340	    -49.60421556	      3.70700646	    -19.32245980	      0.00000000	      5.47787609	      5.45446350	      0.98573773	    -12.45805078	     16.65549557	     -8.25371614	      0.00000000	    -15.45794811	    -10.76204525	     -4.20927439
      6.51000000	     -4.06598745	      3.25476491	      1.36739190	      1.92553939	      0.67369334	     -0.22395665	     33.22090360	     -0.43680338	     -1.56775232	    -45.14079540	      3.26020804	    -19.78360972	      0.00000000	      4.43131140	      5.55041337	      1.78526248	    -12.06743666	     17.25214532	     -8.15139265	      0.00000000	    -15.52400533	    -10.56433008	     -4.61597879
      6.52000000	     -4.23232219	      3.36050554	      2.11119714	      1.93549220	      0.67273770	     -0.22530166	     33.12511750	     -1.11691524	     -2.27279786	    -40.38602683	      2.87942786	    -19.58408657	      0.00000000	      3.45895525	      5.75704629	      2.56247965	    -11.70095417	     17.93840346	     -8.01137392	      0.00000000	    -15.44088363	    -10.49612414	     -5.03757068
      6.53000000	     -4.12636604	      3.51327205	      2.75950883	      1.94572718	      0.67182848	     -0.22648790	     32.48771298	     -1.73698360	     -2.78651894	    -35.24217569	      2.24435597	    -19.11503475	      0.00000000	      2.10138960	      5.95533621	      3.26452282	    -11.20062725	     18.44207039	     -7.89872788	      0.00000000	    -15.63720230	    -10.51220418	     -5.32454246
      6.54000000	     -4.18734873	      3.83219030	      3.48206223	      1.95614875	      0.67048740	     -0.22774825	     31.87857692	     -2.54830819	     -3.26739268	    -29.93453504	      1.60270507	    -18.10931108	      0.00000000	      0.91139206	      6.30908286	      3.95960069	    -10.75730688	     19.07687032	     -7.70565749	      0.00000000	    -15.61429848	    -10.68727959	     -5.71393957
      6.55000000	     -4.06904783	      4.23405264	      4.12237274	      1.96690319	      0.66907795	     -0.22888178	     30.92614487	     -3.36301837	     -3.64202784	    -24.45691773	      0.97372342	    -16.73505946	      0.00000000	     -0.60055662	      6.68733615	      4.53325469	    -10.13091823	     19.60804747	     -7.48632311	      0.00000000	    -15.75789044	    -10.96277448	     -6.07346001
      6.56000000	     -3.97839921	      4.75579056	      4.76892190	      1.97787549	      0.66740567	     -0.22999684	     29.93006684	     -4.27861097	     -3.98225439	    -18.97557301	      0.38886989	    -15.03937633	      0.00000000	     -2.14364381	      7.15401123	      5.08574315	     -9.47205823	     20.09673129	     -7.23708624	      0.00000000	    -15.86299037	    -11.36197073	     -6.42119462
      6.57000000	     -3.88089485	      5.34474197	      5.41961255	      1.98907385	      0.66553311	     -0.23106581	     28.89713653	     -5.24289669	     -4.37989467	    -13.61216098	     -0.04981201	    -13.06773755	      0.00000000	     -3.76345237	      7.64552022	      5.62715437	     -8.76332098	     20.54679923	     -6.96063089	      0.00000000	    -15.97106043	    -11.82629909	     -6.80396529
      6.58000000	     -3.77866116	      5.93132364	      6.00749138	      2.00049203	      0.66348294	     -0.23205360	     27.92864501	     -6.16881874	     -5.02072001	     -8.61041329	     -0.11934631	    -10.53176183	      0.00000000	     -5.46867323	      8.09546314	      6.17229539	     -7.96583784	     20.91594154	     -6.74323761	      0.00000000	    -16.05772817	    -12.29372923	     -7.04347203
      6.59000000	     -3.73613724	      6.50425347	      6.61439403	      2.01200141	      0.66126970	     -0.23295703	     27.14624794	     -7.04887905	     -5.88911676	     -4.15564153	      0.08887906	     -7.76084887	      0.00000000	     -7.10956657	      8.48942245	      6.70539842	     -7.21430431	     21.26536000	     -6.49112528	      0.00000000	    -16.10439617	    -12.75073790	     -7.36800902
